HIERARCHY
ROOT joint_Root
{
	OFFSET 0.0 0.0 0.0
	CHANNELS 6 Xposition Yposition Zposition Zrotation Xrotation Yrotation 
	JOINT Hips
	{
		OFFSET -17.1583 93.1646 452.98
		CHANNELS 6 Xposition Yposition Zposition Zrotation Xrotation Yrotation 
		JOINT Spine
		{
			OFFSET 15.7357 0.0 0.0
			CHANNELS 6 Xposition Yposition Zposition Zrotation Xrotation Yrotation 
			JOINT Chest
			{
				OFFSET 8.98455 -0.406207 0.0
				CHANNELS 6 Xposition Yposition Zposition Zrotation Xrotation Yrotation 
				JOINT Neck
				{
					OFFSET 16.3773 0.0 0.0
					CHANNELS 6 Xposition Yposition Zposition Zrotation Xrotation Yrotation 
					JOINT Head
					{
						OFFSET 6.45672 0.0 0.0
						CHANNELS 6 Xposition Yposition Zposition Zrotation Xrotation Yrotation 
						End Site
						{
							OFFSET 0.0 0.0 0.0
						}
					}
				}
				JOINT Shoulder_L
				{
					OFFSET 12.9942 -0.242716 4.98039
					CHANNELS 6 Xposition Yposition Zposition Zrotation Xrotation Yrotation 
					JOINT UpperArm_L
					{
						OFFSET 5.34809 0.0 0.0
						CHANNELS 6 Xposition Yposition Zposition Zrotation Xrotation Yrotation 
						JOINT LowerArm_L
						{
							OFFSET 24.3286 1.87007e-05 0.0
							CHANNELS 6 Xposition Yposition Zposition Zrotation Xrotation Yrotation 
							JOINT Hand_L
							{
								OFFSET 22.2916 0.0 0.0
								CHANNELS 6 Xposition Yposition Zposition Zrotation Xrotation Yrotation 
								End Site
								{
									OFFSET 0.0 0.0 0.0
								}
							}
						}
					}
				}
				JOINT Shoulder_R
				{
					OFFSET 12.9945 -0.242716 -4.98039
					CHANNELS 6 Xposition Yposition Zposition Zrotation Xrotation Yrotation 
					JOINT UpperArm_R
					{
						OFFSET -5.34813 0.0 0.0
						CHANNELS 6 Xposition Yposition Zposition Zrotation Xrotation Yrotation 
						JOINT LowerArm_R
						{
							OFFSET -24.3289 0.000322201 0.0
							CHANNELS 6 Xposition Yposition Zposition Zrotation Xrotation Yrotation 
							JOINT Hand_R
							{
								OFFSET -22.2915 -0.000108084 0.0
								CHANNELS 6 Xposition Yposition Zposition Zrotation Xrotation Yrotation 
								End Site
								{
									OFFSET 0.0 0.0 0.0
								}
							}
						}
					}
				}
			}
		}
		JOINT UpperLeg_L
		{
			OFFSET -2.19248 -6.46944 0.0
			CHANNELS 6 Xposition Yposition Zposition Zrotation Xrotation Yrotation 
			JOINT LowerLeg_L
			{
				OFFSET 39.0811 0.0 -1.23785e-05
				CHANNELS 6 Xposition Yposition Zposition Zrotation Xrotation Yrotation 
				JOINT Foot_L
				{
					OFFSET 40.9854 0.0 -1.26872e-05
					CHANNELS 6 Xposition Yposition Zposition Zrotation Xrotation Yrotation 
					JOINT Toes_L
					{
						OFFSET 11.7543 0.0 0.0
						CHANNELS 6 Xposition Yposition Zposition Zrotation Xrotation Yrotation 
						End Site
						{
							OFFSET 0.0 0.0 0.0
						}
					}
				}
			}
		}
		JOINT UpperLeg_R
		{
			OFFSET -2.19251 6.46944 0.0
			CHANNELS 6 Xposition Yposition Zposition Zrotation Xrotation Yrotation 
			JOINT LowerLeg_R
			{
				OFFSET -39.0811 -0.00228153 -0.0401928
				CHANNELS 6 Xposition Yposition Zposition Zrotation Xrotation Yrotation 
				JOINT Foot_R
				{
					OFFSET -40.9854 0.0 0.0
					CHANNELS 6 Xposition Yposition Zposition Zrotation Xrotation Yrotation 
					JOINT Toes_R
					{
						OFFSET -11.7543 0.0 0.0
						CHANNELS 6 Xposition Yposition Zposition Zrotation Xrotation Yrotation 
						End Site
						{
							OFFSET 0.0 0.0 0.0
						}
					}
				}
			}
		}
	}
}
MOTION
Frames:	8
Frame Time:	0.0333333
0.000000 0.000000 0.000000 0.000000 0.000000 -0.000000 -4.489600 91.599200 -0.503641 83.074300 -1.917030 3.308430 15.735700 0.000005 -0.000001 95.025500 87.616000 -91.434700 8.984550 -0.406207 -0.000000 -3.008690 0.080193 7.184730 16.377300 -0.000001 -0.000001 11.720600 3.054270 -7.878510 6.456720 -0.000001 -0.000000 5.758840 1.598880 -20.465300 12.994200 -0.242716 4.980390 -93.078800 8.256090 -69.466000 5.348090 -0.000007 -0.000001 -73.266800 7.457530 0.872301 24.328600 0.000019 0.000005 44.053300 -44.985800 -126.155000 22.291600 -0.000001 0.000005 52.996800 4.973850 7.867570 12.994500 -0.242716 -4.980390 88.326200 4.859630 -70.968200 -5.348130 -0.000001 -0.000004 -70.601900 29.417400 -3.117800 -24.328900 0.000322 -0.000009 2.350670 8.016010 -16.409800 -22.291500 -0.000108 -0.000004 1.613180 5.251900 1.382620 -2.192480 -6.469440 -0.000000 -169.961000 1.557200 -5.141990 39.081100 -0.000007 -0.000012 0.445873 -0.765793 30.210800 40.985400 -0.000006 -0.000013 -0.131128 7.342870 -77.655000 11.754300 -0.000000 0.000003 -0.000046 0.168388 -9.747030 -2.192510 6.469440 -0.000001 -167.861000 7.216410 -177.163000 -39.081100 -0.002282 -0.040193 0.132812 -0.462839 15.629600 -40.985400 0.000008 0.000006 6.525140 0.961608 -71.406900 -11.754300 -0.000006 -0.000006 -0.012860 0.291562 -4.721620
0.000000 0.000000 0.000000 0.000000 0.000000 -0.000000 -4.481570 91.601100 -0.567216 83.046300 -1.864560 3.341400 15.735700 0.000005 -0.000001 94.682100 87.607100 -91.069700 8.984550 -0.406207 -0.000000 -2.987520 0.051844 7.226930 16.377300 -0.000001 -0.000001 11.736600 3.043550 -7.884970 6.456720 -0.000001 -0.000000 5.768030 1.574150 -20.421700 12.994200 -0.242716 4.980390 -93.082600 8.264810 -69.462500 5.348090 -0.000007 -0.000001 -73.252000 7.371090 0.862230 24.328600 0.000019 0.000005 44.217700 -45.052700 -126.030000 22.291600 -0.000001 0.000005 53.032900 4.963800 8.079450 12.994500 -0.242716 -4.980390 88.330100 4.848030 -70.968000 -5.348130 -0.000001 -0.000004 -70.616400 29.427300 -3.080380 -24.328900 0.000322 -0.000009 2.340030 7.977730 -16.413100 -22.291500 -0.000108 -0.000004 1.638420 5.253110 1.350450 -2.192480 -6.469440 -0.000000 -169.939000 1.630690 -5.197500 39.081100 -0.000007 -0.000012 0.443338 -0.759950 30.259500 40.985400 -0.000006 -0.000013 -0.128804 7.341950 -77.599900 11.754300 -0.000000 0.000003 0.000073 0.166392 -9.828090 -2.192510 6.469440 -0.000001 -167.858000 7.358070 -177.176000 -39.081100 -0.002282 -0.040193 0.133160 -0.463923 15.634700 -40.985400 0.000008 0.000006 6.601740 1.065640 -71.417700 -11.754300 -0.000006 -0.000006 -0.013019 0.292624 -4.678100
0.000000 0.000000 0.000000 0.000000 0.000000 -0.000000 -4.464660 91.600800 -0.629477 83.017500 -1.905160 3.405720 15.735700 0.000005 -0.000001 94.866400 87.584700 -91.232800 8.984550 -0.406207 -0.000000 -2.944610 0.070342 7.269770 16.377300 -0.000001 -0.000001 11.793200 2.999240 -7.846610 6.456720 -0.000001 -0.000000 5.693210 1.552620 -20.431700 12.994200 -0.242716 4.980390 -93.080900 8.257510 -69.456300 5.348090 -0.000007 -0.000001 -73.270800 7.306850 0.855633 24.328600 0.000019 0.000005 44.238800 -45.024000 -125.997000 22.291600 -0.000001 0.000005 53.072900 4.962930 8.097770 12.994500 -0.242716 -4.980390 88.332800 4.841630 -70.973300 -5.348130 -0.000001 -0.000004 -70.610600 29.383000 -3.071750 -24.328900 0.000322 -0.000009 2.341380 7.990460 -16.397500 -22.291500 -0.000108 -0.000004 1.592750 5.253320 1.344810 -2.192480 -6.469440 -0.000000 -169.921000 1.628030 -5.193620 39.081100 -0.000007 -0.000012 0.445827 -0.762338 30.320900 40.985400 -0.000006 -0.000013 -0.133297 7.313240 -77.632000 11.754300 -0.000000 0.000003 -0.000004 0.167688 -9.775480 -2.192510 6.469440 -0.000001 -167.758000 7.028380 -177.162000 -39.081100 -0.002282 -0.040193 0.136131 -0.474325 15.641400 -40.985400 0.000008 0.000006 6.617470 0.698310 -71.348200 -11.754300 -0.000006 -0.000006 -0.012804 0.291184 -4.737130
0.000000 0.000000 0.000000 0.000000 0.000000 -0.000000 -4.454320 91.591900 -0.674908 82.982900 -1.915040 3.469690 15.735700 0.000005 -0.000001 94.628100 87.564500 -90.967600 8.984550 -0.406207 -0.000000 -2.901960 0.052442 7.323020 16.377300 -0.000001 -0.000001 11.835700 3.007380 -7.849620 6.456720 -0.000001 -0.000000 5.654790 1.534420 -20.386700 12.994200 -0.242716 4.980390 -93.091000 8.292630 -69.473900 5.348090 -0.000007 -0.000001 -73.242100 7.149020 0.853035 24.328600 0.000019 0.000005 43.468700 -44.666000 -126.560000 22.291600 -0.000001 0.000005 53.002200 4.983970 7.658110 12.994500 -0.242716 -4.980390 88.332600 4.840640 -70.966900 -5.348130 -0.000001 -0.000004 -70.535800 29.446200 -3.103900 -24.328900 0.000322 -0.000009 2.343530 7.990400 -16.411900 -22.291500 -0.000108 -0.000004 1.682630 5.251890 1.382680 -2.192480 -6.469440 -0.000000 -169.899000 1.641460 -5.212160 39.081100 -0.000007 -0.000012 0.449810 -0.766232 30.415900 40.985400 -0.000006 -0.000013 -0.121876 7.315740 -77.604500 11.754300 -0.000000 0.000003 0.000048 0.166807 -9.811270 -2.192510 6.469440 -0.000001 -167.750000 7.037410 -177.199000 -39.081100 -0.002282 -0.040193 0.136869 -0.472753 15.773800 -40.985400 0.000008 0.000006 6.618630 0.762272 -71.335500 -11.754300 -0.000006 -0.000006 -0.012630 0.290005 -4.785430
0.000000 0.000000 0.000000 0.000000 0.000000 -0.000000 -4.445470 91.592500 -0.723917 82.964900 -1.939100 3.512320 15.735700 0.000005 -0.000001 94.118600 87.555200 -90.444900 8.984550 -0.406207 -0.000000 -2.878730 0.010129 7.348280 16.377300 -0.000001 -0.000001 11.822200 2.993650 -7.801770 6.456720 -0.000001 -0.000000 5.670850 1.599350 -20.380800 12.994200 -0.242716 4.980390 -93.096000 8.299390 -69.458500 5.348090 -0.000007 -0.000001 -73.202000 7.095510 0.884396 24.328600 0.000019 0.000005 43.136900 -44.527500 -126.811000 22.291600 -0.000001 0.000005 52.917800 4.989480 7.542270 12.994500 -0.242716 -4.980390 88.329900 4.854320 -70.988700 -5.348130 -0.000001 -0.000004 -70.482700 29.425200 -3.133090 -24.328900 0.000322 -0.000009 2.328580 7.964600 -16.362400 -22.291500 -0.000108 -0.000004 1.692020 5.251860 1.383580 -2.192480 -6.469440 -0.000000 -169.889000 1.644910 -5.206780 39.081100 -0.000007 -0.000012 0.450837 -0.766892 30.451400 40.985400 -0.000006 -0.000013 -0.121284 7.301700 -77.626800 11.754300 -0.000000 0.000003 -0.000049 0.168445 -9.744750 -2.192510 6.469440 -0.000001 -167.757000 7.146620 -177.195000 -39.081100 -0.002282 -0.040193 0.137899 -0.475192 15.811900 -40.985400 0.000008 0.000006 6.637320 0.888053 -71.389700 -11.754300 -0.000006 -0.000006 -0.013109 0.293226 -4.653410
0.000000 0.000000 0.000000 0.000000 0.000000 -0.000000 -4.418330 91.592800 -0.745492 82.973700 -1.993180 3.565780 15.735700 0.000005 -0.000001 94.157300 87.545400 -90.475600 8.984550 -0.406207 -0.000000 -2.859550 0.014717 7.364410 16.377300 -0.000001 -0.000001 11.887000 3.010820 -7.782210 6.456720 -0.000001 -0.000000 5.600070 1.624100 -20.329700 12.994200 -0.242716 4.980390 -93.095000 8.289430 -69.441800 5.348090 -0.000007 -0.000001 -73.199500 7.111360 0.860661 24.328600 0.000019 0.000005 43.572200 -44.683000 -126.469000 22.291600 -0.000001 0.000005 52.926700 4.976320 7.818770 12.994500 -0.242716 -4.980390 88.325200 4.858590 -70.954500 -5.348130 -0.000001 -0.000004 -70.441500 29.250100 -3.171320 -24.328900 0.000322 -0.000009 2.353060 8.083410 -16.296700 -22.291500 -0.000108 -0.000004 1.647260 5.251960 1.380970 -2.192480 -6.469440 -0.000000 -169.918000 1.615950 -5.175730 39.081100 -0.000007 -0.000012 0.452793 -0.769532 30.473800 40.985400 -0.000006 -0.000013 -0.114340 7.272450 -77.641800 11.754300 -0.000000 0.000003 -0.000058 0.168587 -9.738950 -2.192510 6.469440 -0.000001 -167.797000 7.114550 -177.197000 -39.081100 -0.002282 -0.040193 0.139441 -0.477707 15.903900 -40.985400 0.000008 0.000006 6.616210 0.913492 -71.433300 -11.754300 -0.000006 -0.000006 -0.013121 0.293309 -4.650030
0.000000 0.000000 0.000000 0.000000 0.000000 -0.000000 -4.403920 91.596600 -0.778516 82.944400 -2.009610 3.593970 15.735700 0.000005 -0.000001 93.623000 87.548300 -89.926100 8.984550 -0.406207 -0.000000 -2.860520 -0.032749 7.393680 16.377300 -0.000001 -0.000001 11.909100 3.036860 -7.728340 6.456720 -0.000001 -0.000000 5.581010 1.705020 -20.299600 12.994200 -0.242716 4.980390 -93.089400 8.266190 -69.423800 5.348090 -0.000007 -0.000001 -73.199700 7.167280 0.819339 24.328600 0.000019 0.000005 44.242400 -44.969500 -125.967000 22.291600 -0.000001 0.000005 53.175500 4.950970 8.344980 12.994500 -0.242716 -4.980390 88.325900 4.855740 -70.951200 -5.348130 -0.000001 -0.000004 -70.399600 29.254100 -3.173340 -24.328900 0.000322 -0.000009 2.342260 8.049230 -16.290700 -22.291500 -0.000108 -0.000004 1.709050 5.250750 1.412990 -2.192480 -6.469440 -0.000000 -169.894000 1.586230 -5.169080 39.081100 -0.000007 -0.000012 0.451869 -0.767672 30.483300 40.985400 -0.000006 -0.000013 -0.098699 7.291740 -77.593300 11.754300 -0.000000 0.000003 0.000126 0.165477 -9.865280 -2.192510 6.469440 -0.000001 -167.746000 6.957830 -177.187000 -39.081100 -0.002282 -0.040193 0.138917 -0.476507 15.883700 -40.985400 0.000008 0.000006 6.582960 0.736749 -71.359200 -11.754300 -0.000006 -0.000006 -0.012842 0.291439 -4.726680
0.000000 0.000000 0.000000 0.000000 0.000000 -0.000000 -4.371910 91.596200 -0.792498 82.963800 -2.028040 3.646850 15.735700 0.000005 -0.000001 93.433600 87.541100 -89.742600 8.984550 -0.406207 -0.000000 -2.844720 -0.046994 7.381460 16.377300 -0.000001 -0.000001 11.933200 3.052020 -7.693060 6.456720 -0.000001 -0.000000 5.508980 1.765880 -20.202500 12.994200 -0.242716 4.980390 -93.074600 8.234180 -69.442100 5.348090 -0.000007 -0.000001 -73.219800 7.061590 0.845171 24.328600 0.000019 0.000005 44.270900 -45.006700 -125.958000 22.291600 -0.000001 0.000005 53.133400 4.945170 8.463820 12.994500 -0.242716 -4.980390 88.313800 4.879540 -70.910400 -5.348130 -0.000001 -0.000004 -70.340400 29.300400 -3.171490 -24.328900 0.000322 -0.000009 2.335100 8.024930 -16.289800 -22.291500 -0.000108 -0.000004 1.795890 5.248830 1.463700 -2.192480 -6.469440 -0.000000 -169.943000 1.600140 -5.126800 39.081100 -0.000007 -0.000012 0.449827 -0.763921 30.492500 40.985400 -0.000006 -0.000013 -0.094841 7.225920 -77.597600 11.754300 -0.000000 0.000003 -0.000054 0.168528 -9.741370 -2.192510 6.469440 -0.000001 -167.808000 6.979200 -177.187000 -39.081100 -0.002282 -0.040193 0.139512 -0.475784 15.972900 -40.985400 0.000008 0.000006 6.566910 0.800960 -71.376500 -11.754300 -0.000006 -0.000006 -0.012695 0.290443 -4.767470
